<mxfile host="app.diagrams.net" modified="2024-03-22T05:22:22.975Z" agent="Mozilla/5.0 (Macintosh; Intel Mac OS X 10_15_7) AppleWebKit/537.36 (KHTML, like Gecko) Chrome/123.0.0.0 Safari/537.36" version="24.0.7" etag="fLuW868Tpm1T8Br_dt56" type="github">
  <diagram name="Page-1" id="oCbhN4GOhHEDokgO4Ein">
    <mxGraphModel>
      <root>
        <mxCell id="0" />
        <mxCell id="1" parent="0" />
      </root>
    </mxGraphModel>
  </diagram>
</mxfile>
